<svg width="19" height="19" viewBox="0 0 19 19" fill="none" xmlns="http://www.w3.org/2000/svg">
    <path fill-rule="evenodd" clip-rule="evenodd"
        d="M5.47818 4.80454C5.77112 5.09739 5.7712 5.57226 5.47835 5.8652C4.63943 6.7044 4.06818 7.7735 3.83683 8.93733C3.60548 10.1012 3.72441 11.3075 4.17859 12.4037C4.63278 13.4999 5.40181 14.4369 6.38847 15.0961C7.37512 15.7553 8.53508 16.1072 9.72168 16.1072C10.9083 16.1072 12.0682 15.7553 13.0549 15.0961C14.0416 14.4369 14.8106 13.4999 15.2648 12.4037C15.719 11.3075 15.8379 10.1012 15.6065 8.93733C15.3752 7.7735 14.8039 6.7044 13.965 5.8652C13.6722 5.57226 13.6722 5.09739 13.9652 4.80454C14.2581 4.5117 14.733 4.51178 15.0259 4.80472C16.0745 5.85371 16.7886 7.19008 17.0778 8.64488C17.3669 10.0997 17.2183 11.6075 16.6505 12.9778C16.0828 14.3481 15.1215 15.5193 13.8882 16.3433C12.6549 17.1673 11.2049 17.6072 9.72168 17.6072C8.23843 17.6072 6.78848 17.1673 5.55516 16.3433C4.32185 15.5193 3.36055 14.3481 2.79282 12.9778C2.22509 11.6075 2.07642 10.0997 2.36561 8.64488C2.65481 7.19009 3.36887 5.85371 4.41752 4.80472C4.71036 4.51178 5.18524 4.5117 5.47818 4.80454Z"
        fill="#949494" />
    <path fill-rule="evenodd" clip-rule="evenodd"
        d="M9.72559 1.10498C10.1398 1.10498 10.4756 1.44077 10.4756 1.85498V9.35498C10.4756 9.76919 10.1398 10.105 9.72559 10.105C9.31137 10.105 8.97559 9.76919 8.97559 9.35498V1.85498C8.97559 1.44077 9.31137 1.10498 9.72559 1.10498Z"
        fill="#949494" />
</svg>
