<svg width="14" height="15" viewBox="0 0 14 15" fill="none" xmlns="http://www.w3.org/2000/svg">
    <path fill-rule="evenodd" clip-rule="evenodd"
        d="M6.7823 1.11261C7.008 0.937072 7.32403 0.937072 7.54973 1.11261L13.1747 5.48761C13.327 5.60602 13.416 5.78809 13.416 5.98096V12.856C13.416 13.3532 13.2185 13.8302 12.8668 14.1818C12.5152 14.5334 12.0383 14.731 11.541 14.731H2.79102C2.29373 14.731 1.81682 14.5334 1.46519 14.1818C1.11356 13.8302 0.916016 13.3532 0.916016 12.856V5.98096C0.916016 5.78809 1.00506 5.60602 1.1573 5.48761L6.7823 1.11261ZM2.16602 6.28663V12.856C2.16602 13.0217 2.23186 13.1807 2.34907 13.2979C2.46628 13.4151 2.62526 13.481 2.79102 13.481H11.541C11.7068 13.481 11.8657 13.4151 11.983 13.2979C12.1002 13.1807 12.166 13.0217 12.166 12.856V6.28663L7.16602 2.39775L2.16602 6.28663Z"
        fill="#606060" />
    <path fill-rule="evenodd" clip-rule="evenodd"
        d="M4.66602 7.85596C4.66602 7.51078 4.94584 7.23096 5.29102 7.23096H9.04102C9.38619 7.23096 9.66602 7.51078 9.66602 7.85596V14.106C9.66602 14.4511 9.38619 14.731 9.04102 14.731C8.69584 14.731 8.41602 14.4511 8.41602 14.106V8.48096H5.91602V14.106C5.91602 14.4511 5.63619 14.731 5.29102 14.731C4.94584 14.731 4.66602 14.4511 4.66602 14.106V7.85596Z"
        fill="#606060" />
</svg>
